<svg version="1.1" id="Layer_1" xmlns="http://www.w3.org/2000/svg" xmlns:xlink="http://www.w3.org/1999/xlink" x="0px" y="0px"
	 width="100%" viewBox="0 0 204 278" enable-background="new 0 0 204 278" xml:space="preserve">
<path fill="#FFFFFF" opacity="1.000000" stroke="none" 
	d="
M126.000000,279.000000 
	C84.021530,279.000000 42.543064,279.000000 1.032299,279.000000 
	C1.032299,186.402954 1.032299,93.805901 1.032299,1.104420 
	C68.894966,1.104420 136.790146,1.104420 204.842651,1.104420 
	C204.842651,93.666443 204.842651,186.333206 204.842651,279.000000 
	C178.806122,279.000000 152.653061,279.000000 126.000000,279.000000 
M72.737923,266.875885 
	C84.162888,270.751129 95.944916,271.172150 107.893410,271.077087 
	C135.094757,270.860657 156.154938,258.490814 172.659653,238.006516 
	C185.577393,221.974030 191.589096,203.457611 190.152130,182.424072 
	C189.117828,167.284576 184.516632,153.580002 177.570435,140.376877 
	C175.532364,136.502960 173.348572,135.991379 168.960617,137.450607 
	C161.050949,140.080978 152.721085,141.485809 144.522125,143.187622 
	C141.652451,143.783249 139.519287,142.707489 139.910370,139.198868 
	C140.441879,134.430527 140.097031,129.306854 141.772308,124.970856 
	C147.310211,110.637596 149.083755,96.177513 147.147552,80.870483 
	C144.831543,62.560608 139.952072,45.556660 127.944374,31.061569 
	C119.827194,21.262926 109.453613,15.273857 97.199951,11.199444 
	C100.606369,32.650696 95.869835,51.367935 82.222931,67.630997 
	C68.515602,83.966049 54.562511,100.099152 41.072590,116.611168 
	C27.111059,133.700455 16.805077,152.558487 13.878675,174.948883 
	C11.258155,194.998917 14.453746,213.582184 25.363094,230.842239 
	C36.557243,248.552917 52.581570,259.730896 72.737923,266.875885 
z"/>
<path fill="#EE3928" opacity="1.000000" stroke="none" 
	d="
M72.347198,266.776184 
	C52.581570,259.730896 36.557243,248.552917 25.363094,230.842239 
	C14.453746,213.582184 11.258155,194.998917 13.878675,174.948883 
	C16.805077,152.558487 27.111059,133.700455 41.072590,116.611168 
	C54.562511,100.099152 68.515602,83.966049 82.222931,67.630997 
	C95.869835,51.367935 100.606369,32.650696 97.199951,11.199444 
	C109.453613,15.273857 119.827194,21.262926 127.944374,31.061569 
	C139.952072,45.556660 144.831543,62.560608 147.147552,80.870483 
	C149.083755,96.177513 147.310211,110.637596 141.772308,124.970856 
	C140.097031,129.306854 140.441879,134.430527 139.910370,139.198868 
	C139.519287,142.707489 141.652451,143.783249 144.522125,143.187622 
	C152.721085,141.485809 161.050949,140.080978 168.960617,137.450607 
	C173.348572,135.991379 175.532364,136.502960 177.570435,140.376877 
	C184.516632,153.580002 189.117828,167.284576 190.152130,182.424072 
	C191.589096,203.457611 185.577393,221.974030 172.659653,238.006516 
	C156.154938,258.490814 135.094757,270.860657 107.893410,271.077087 
	C95.944916,271.172150 84.162888,270.751129 72.347198,266.776184 
M136.004959,240.006439 
	C136.004959,240.006439 136.045898,240.062317 136.547943,239.726303 
	C136.725388,239.159988 136.902832,238.593658 137.007248,238.005081 
	C137.007248,238.005081 137.055771,238.064026 137.564240,237.730682 
	C137.780518,237.166290 137.996811,236.601883 138.601196,235.812195 
	C138.825684,235.603561 138.985535,235.353577 139.621124,234.599350 
	C140.037399,232.745880 140.453659,230.892410 141.000763,228.569504 
	C141.000763,228.569504 141.117035,228.096268 141.712631,227.488678 
	C141.479218,220.973846 141.245804,214.459030 140.999344,207.085403 
	C140.858688,195.458511 135.146484,186.339142 128.208832,177.581589 
	C123.336563,171.431213 116.995560,166.189041 114.925888,157.334579 
	C112.669250,150.860855 110.381760,144.397614 108.172791,137.907669 
	C107.404472,135.650345 106.830360,133.326950 106.079956,130.155762 
	C106.355278,126.383530 106.630608,122.611290 107.008865,117.428764 
	C100.869392,125.444695 95.875359,132.349365 90.469238,138.914719 
	C85.137169,145.390137 79.102936,151.295853 73.892487,157.860825 
	C67.057747,166.472351 61.893402,176.041260 59.133080,187.190353 
	C58.762394,189.153732 58.391708,191.117126 58.009972,193.812256 
	C57.995209,194.543915 57.980442,195.275574 57.379791,196.597275 
	C57.263348,200.707962 56.600597,204.897903 57.182209,208.907333 
	C57.778595,213.018661 59.592255,216.953400 60.988503,221.751282 
	C64.510765,229.130966 66.954704,237.332901 71.807999,243.697632 
	C79.089890,253.247314 88.475388,260.629883 101.949051,258.985046 
	C105.944771,258.497253 109.972656,258.273010 114.762428,257.939636 
	C118.202461,255.978485 121.642494,254.017319 125.024788,252.004150 
	C125.024788,252.004150 125.033508,252.081360 125.754082,251.999313 
	C129.580032,250.624115 132.548996,248.458923 133.039841,243.991043 
	C133.039841,243.991043 133.046188,244.062943 133.556549,243.896790 
	C133.771683,243.612854 133.986801,243.328934 134.595871,242.823456 
	C134.828125,242.610519 134.966049,242.348007 135.469528,241.662399 
	C135.670654,241.114899 135.871780,240.567383 136.004959,240.006439 
z"/>
<path fill="#FF923C" opacity="1.000000" stroke="none" 
	d="
M113.985809,257.927979 
	C109.972656,258.273010 105.944771,258.497253 101.949051,258.985046 
	C88.475388,260.629883 79.089890,253.247314 71.807999,243.697632 
	C66.954704,237.332901 64.510765,229.130966 60.978436,220.950226 
	C60.639244,217.453934 60.310120,214.758682 59.989540,211.589752 
	C59.999550,209.156113 60.124451,207.186829 59.976929,205.238159 
	C59.665264,201.121384 59.211182,197.015381 58.883568,192.531479 
	C59.255291,190.451263 59.558971,188.744522 59.862656,187.037796 
	C61.893402,176.041260 67.057747,166.472351 73.892487,157.860825 
	C79.102936,151.295853 85.137169,145.390137 90.469238,138.914719 
	C95.875359,132.349365 100.869392,125.444695 107.008865,117.428764 
	C106.630608,122.611290 106.355278,126.383530 106.078003,131.017426 
	C107.048508,137.408295 107.530388,143.088364 109.167778,148.413071 
	C110.239815,151.899277 112.984818,154.871002 114.980522,158.073166 
	C116.995560,166.189041 123.336563,171.431213 128.208832,177.581589 
	C135.146484,186.339142 140.858688,195.458511 141.000870,207.985840 
	C140.681732,213.936981 140.270309,218.984665 140.101379,224.040451 
	C140.056625,225.379578 140.758163,226.743652 141.117035,228.096268 
	C141.117035,228.096268 141.000763,228.569504 140.600250,228.858093 
	C139.826721,231.118530 139.453735,233.090393 139.080734,235.062256 
	C138.985535,235.353577 138.825684,235.603561 138.112320,236.056763 
	C137.434219,236.888901 137.244995,237.476471 137.055771,238.064026 
	C137.055771,238.064026 137.007248,238.005081 136.775757,238.169922 
	C136.378143,238.910629 136.212021,239.486465 136.045898,240.062317 
	C136.045898,240.062317 136.004959,240.006439 135.774155,240.167267 
	C135.365448,240.897385 135.187546,241.466660 135.009644,242.035934 
	C134.966049,242.348007 134.828125,242.610519 134.136780,243.015289 
	C133.467178,243.492386 133.256683,243.777664 133.046188,244.062943 
	C133.046188,244.062943 133.039841,243.991043 132.747101,244.138367 
	C129.980759,246.884262 127.507126,249.482803 125.033508,252.081360 
	C125.033508,252.081360 125.024788,252.004150 124.683578,252.043182 
	C120.890190,254.030823 117.438004,255.979416 113.985809,257.927979 
z"/>
<path fill="#EE2D25" opacity="1.000000" stroke="none" 
	d="
M114.953201,157.703873 
	C112.984818,154.871002 110.239815,151.899277 109.167778,148.413071 
	C107.530388,143.088364 107.048508,137.408295 106.121796,131.456421 
	C106.830360,133.326950 107.404472,135.650345 108.172791,137.907669 
	C110.381760,144.397614 112.669250,150.860855 114.953201,157.703873 
z"/>
<path fill="#ED2723" opacity="1.000000" stroke="none" 
	d="
M59.980995,212.063446 
	C60.310120,214.758682 60.639244,217.453934 60.920761,220.557297 
	C59.592255,216.953400 57.778595,213.018661 57.182209,208.907333 
	C56.600597,204.897903 57.263348,200.707962 57.724281,196.758377 
	C58.706181,201.967468 59.343590,207.015457 59.980995,212.063446 
z"/>
<path fill="#FD9E3D" opacity="1.000000" stroke="none" 
	d="
M59.989540,211.589752 
	C59.343590,207.015457 58.706181,201.967468 58.017227,196.463348 
	C57.980442,195.275574 57.995209,194.543915 58.212570,193.395447 
	C58.415165,192.978653 58.815525,192.904968 58.815525,192.904968 
	C59.211182,197.015381 59.665264,201.121384 59.976929,205.238159 
	C60.124451,207.186829 59.999550,209.156113 59.989540,211.589752 
z"/>
<path fill="#FFA740" opacity="1.000000" stroke="none" 
	d="
M141.414825,227.792480 
	C140.758163,226.743652 140.056625,225.379578 140.101379,224.040451 
	C140.270309,218.984665 140.681732,213.936981 141.007401,208.415237 
	C141.245804,214.459030 141.479218,220.973846 141.414825,227.792480 
z"/>
<path fill="#FE9C3E" opacity="1.000000" stroke="none" 
	d="
M114.374115,257.933838 
	C117.438004,255.979416 120.890190,254.030823 124.712448,252.069183 
	C121.642494,254.017319 118.202461,255.978485 114.374115,257.933838 
z"/>
<path fill="#FE9C3E" opacity="1.000000" stroke="none" 
	d="
M125.393799,252.040344 
	C127.507126,249.482803 129.980759,246.884262 132.768631,244.167358 
	C132.548996,248.458923 129.580032,250.624115 125.393799,252.040344 
z"/>
<path fill="#FFA740" opacity="1.000000" stroke="none" 
	d="
M139.350922,234.830811 
	C139.453735,233.090393 139.826721,231.118530 140.534821,229.092804 
	C140.453659,230.892410 140.037399,232.745880 139.350922,234.830811 
z"/>
<path fill="#ED2723" opacity="1.000000" stroke="none" 
	d="
M58.883568,192.531479 
	C58.815525,192.904968 58.415165,192.978653 58.218094,193.029572 
	C58.391708,191.117126 58.762394,189.153732 59.497868,187.114075 
	C59.558971,188.744522 59.255291,190.451263 58.883568,192.531479 
z"/>
<path fill="#FE9C3E" opacity="1.000000" stroke="none" 
	d="
M137.309998,237.897354 
	C137.244995,237.476471 137.434219,236.888901 137.918274,236.169418 
	C137.996811,236.601883 137.780518,237.166290 137.309998,237.897354 
z"/>
<path fill="#FE9C3E" opacity="1.000000" stroke="none" 
	d="
M136.296921,239.894318 
	C136.212021,239.486465 136.378143,238.910629 136.812271,238.181061 
	C136.902832,238.593658 136.725388,239.159988 136.296921,239.894318 
z"/>
<path fill="#FE9C3E" opacity="1.000000" stroke="none" 
	d="
M135.239594,241.849167 
	C135.187546,241.466660 135.365448,240.897385 135.808136,240.173981 
	C135.871780,240.567383 135.670654,241.114899 135.239594,241.849167 
z"/>
<path fill="#FE9C3E" opacity="1.000000" stroke="none" 
	d="
M133.301361,243.979858 
	C133.256683,243.777664 133.467178,243.492386 133.939789,243.126053 
	C133.986801,243.328934 133.771683,243.612854 133.301361,243.979858 
z"/>
</svg>